<svg xmlns="http://www.w3.org/2000/svg" viewBox="0 0 32 28"><defs><style>.cls-1{fill:#666;}</style></defs><title>Artboard 2 copy 10</title><g id="Layer_1" data-name="Layer 1"><path class="cls-1" d="M31.35,12.17H20.5a.65.65,0,0,1-.64-.65V.68A.64.64,0,0,1,21,.22L31.8,11.07a.65.65,0,0,1,.14.7A.64.64,0,0,1,31.35,12.17ZM21.14,10.88H29.8L21.14,2.22Z"/><path class="cls-1" d="M31.35,28H.61A.63.63,0,0,1,0,27.38V.68A.63.63,0,0,1,.61,0H20.5A.63.63,0,0,1,21,.22L31.8,11.07a.65.65,0,0,1,.19.45V27.38A.64.64,0,0,1,31.35,28ZM1.25,26.74H30.71V11.79L20.23,1.32h-19Z"/><path class="cls-1" d="M15.07,6.74H6A.64.64,0,1,1,6,5.46h9a.64.64,0,1,1,0,1.28Z"/><path class="cls-1" d="M15.07,12.17H6a.65.65,0,0,1,0-1.29h9a.65.65,0,0,1,0,1.29Z"/><path class="cls-1" d="M25.92,17.59H6a.64.64,0,0,1,0-1.28H25.92a.64.64,0,1,1,0,1.28Z"/><path class="cls-1" d="M25.92,23H6a.64.64,0,0,1-.64-.64A.64.64,0,0,1,6,21.73H25.92a.64.64,0,1,1,0,1.28Z"/></g></svg>